# Blender v2.79 (sub 0) OBJ File: 'Filler Furniture.blend'
# www.blender.org
mtllib Book.mtl
o Book_Cube.005
v 0.117518 -0.622067 3.191884
v 0.117518 0.622067 3.191884
v 0.117518 -0.622067 2.267857
v 0.117518 0.622067 2.267857
v -0.117518 -0.622067 3.191884
v -0.117518 0.622067 3.191884
v -0.117518 -0.622067 2.267857
v -0.117518 0.622067 2.267857
v -0.074053 -0.622067 2.267857
v 0.066638 -0.622067 2.267857
v 0.066638 0.622067 2.267857
v -0.074053 0.622067 2.267857
v 0.088051 -0.622067 3.221591
v -0.095466 -0.622067 3.221591
v -0.095466 0.622067 3.221591
v 0.088051 0.622067 3.221591
v 0.117518 -0.622067 3.145477
v 0.117518 0.622067 3.145477
v -0.117518 -0.622067 3.145477
v -0.117518 0.622067 3.145477
v -0.074053 0.622067 3.145477
v 0.066638 0.622067 3.145477
v 0.066638 -0.622067 3.145477
v -0.074053 -0.622067 3.145477
v -0.070684 -0.592273 2.282370
v 0.063269 -0.592273 2.282370
v 0.063269 0.592273 2.282370
v -0.070684 0.592273 2.282370
v -0.070684 0.592273 3.124301
v 0.063269 0.592273 3.124301
v 0.063269 -0.592273 3.124301
v -0.070684 -0.592273 3.124301
vn 0.0000 0.0000 -1.0000
vn 0.0000 -1.0000 0.0000
vn 0.0000 1.0000 0.0000
vn 0.7071 -0.7071 0.0000
vn 0.5773 -0.5773 -0.5773
vn 0.5773 0.5773 -0.5773
vn 0.7071 0.7071 0.0000
vn 0.5486 -0.5949 -0.5875
vn -0.5773 -0.5773 -0.5773
vn -0.5773 0.5773 -0.5773
vn 0.5486 0.5949 -0.5875
vn -0.7071 -0.7071 0.0000
vn -0.7273 -0.6428 0.2404
vn -0.7273 0.6428 0.2404
vn -0.7071 0.7071 0.0000
vn 0.2987 -0.6299 0.7169
vn 0.7176 -0.6306 0.2955
vn 0.7176 0.6306 0.2955
vn 0.2987 0.6299 0.7169
vn 0.1615 -0.9653 -0.2050
vn -0.3531 -0.6185 0.7019
vn -0.1615 0.9653 -0.2050
vn -0.3531 0.6185 0.7019
vn 0.1615 0.9653 -0.2050
vn -0.1615 -0.9653 -0.2050
vn -0.5486 -0.5949 -0.5875
vn -0.5486 0.5949 -0.5875
vn 0.5747 -0.7356 -0.3586
vn -0.5747 -0.7356 -0.3586
vn 0.8532 0.3322 -0.4021
vn 0.8532 -0.3322 -0.4021
vn -0.5747 0.7356 -0.3586
vn 0.5747 0.7356 -0.3586
vn -0.8532 -0.3322 -0.4021
vn -0.8532 0.3322 -0.4021
usemtl None
s off
f 26//1 25//1 28//1 27//1
f 26//2 31//2 32//2 25//2
f 28//3 29//3 30//3 27//3
s 1
f 17//4 3//5 4//6 18//7
f 9//8 7//9 8//10 12//11
f 19//12 5//13 6//14 20//15
f 13//16 1//17 2//18 16//19
f 24//20 14//21 5//13 19//12
f 22//22 16//19 2//18 18//7
f 20//15 6//14 15//23 21//24
f 21//24 15//23 16//19 22//22
f 17//4 1//17 13//16 23//25
f 23//25 13//16 14//21 24//20
f 5//13 14//21 15//23 6//14
f 14//21 13//16 16//19 15//23
f 3//5 10//26 11//27 4//6
f 24//20 32//28 31//29 23//25
f 12//11 28//30 25//31 9//8
f 3//5 17//4 23//25 10//26
f 22//22 30//32 29//33 21//24
f 8//10 20//15 21//24 12//11
f 11//27 22//22 18//7 4//6
f 9//8 24//20 19//12 7//9
f 7//9 19//12 20//15 8//10
f 1//17 17//4 18//7 2//18
f 23//25 31//29 26//34 10//26
f 21//24 29//33 28//30 12//11
f 10//26 26//34 27//35 11//27
f 9//8 25//31 32//28 24//20
f 11//27 27//35 30//32 22//22
