# Blender v2.79 (sub 0) OBJ File: 'Filler Furniture.blend'
# www.blender.org
mtllib Panel.mtl
o Panel_Cube.006
v -2.516577 1.931386 3.056557
v -2.516577 3.611244 3.056557
v -2.516577 1.931386 -3.192767
v -2.516577 3.611244 -3.192767
v -2.713433 1.931386 3.056557
v -2.713433 3.611244 3.056557
v -2.713433 1.931386 -3.192767
v -2.713433 3.611244 -3.192767
v -2.516577 2.125838 -3.004670
v -2.516577 2.125838 2.868460
v -2.516577 3.416792 2.868460
v -2.516577 3.416792 -3.004670
v -2.576440 2.125838 -3.004670
v -2.576440 2.125838 2.868460
v -2.576440 3.416792 2.868460
v -2.576440 3.416792 -3.004670
v -2.516577 1.931386 -0.046850
v -2.516577 3.611244 -0.046850
v -2.713433 1.931386 -0.046850
v -2.713433 3.611244 -0.046850
v -2.516577 2.125838 -0.048130
v -2.516577 3.416792 -0.048130
v -2.576440 2.125838 -0.048130
v -2.576440 3.416792 -0.048130
v -2.576440 2.291407 0.325932
v -2.576440 2.291407 2.494399
v -2.576440 3.251224 2.494399
v -2.576440 3.251224 0.325932
v -2.576440 3.259185 -0.409083
v -2.576440 3.259185 -2.643717
v -2.576440 2.283446 -2.643717
v -2.576440 2.283446 -0.409083
v -2.443379 2.291407 0.325932
v -2.443379 2.291407 2.494399
v -2.443379 3.251224 2.494399
v -2.443379 3.251224 0.325932
v -2.443379 3.259185 -0.409083
v -2.443379 3.259185 -2.643717
v -2.443379 2.283446 -2.643717
v -2.443379 2.283446 -0.409083
vn 1.0000 -0.0000 0.0000
vn 0.0000 0.0000 -1.0000
vn -1.0000 0.0000 0.0000
vn 0.0000 0.0000 1.0000
vn 0.0000 -1.0000 0.0000
vn 0.0000 1.0000 0.0000
usemtl None
s off
f 18//1 22//1 12//1 4//1
f 3//2 7//2 8//2 4//2
f 19//3 5//3 6//3 20//3
f 5//4 1//4 2//4 6//4
f 17//5 1//5 5//5 19//5
f 20//6 6//6 2//6 18//6
f 10//2 14//2 15//2 11//2
f 17//1 21//1 10//1 1//1
f 4//1 12//1 9//1 3//1
f 1//1 10//1 11//1 2//1
f 24//1 29//1 30//1 16//1
f 22//5 24//5 16//5 12//5
f 21//6 23//6 14//6 10//6
f 12//4 16//4 13//4 9//4
f 9//6 13//6 23//6 21//6
f 11//5 15//5 24//5 22//5
f 15//1 27//1 28//1 24//1
f 3//1 9//1 21//1 17//1
f 8//6 20//6 18//6 4//6
f 3//5 17//5 19//5 7//5
f 7//3 19//3 20//3 8//3
f 2//1 11//1 22//1 18//1
f 32//4 40//4 37//4 29//4
f 23//1 25//1 26//1 14//1
f 24//1 28//1 25//1 23//1
f 14//1 26//1 27//1 15//1
f 27//6 35//6 36//6 28//6
f 23//1 32//1 29//1 24//1
f 16//1 30//1 31//1 13//1
f 13//1 31//1 32//1 23//1
f 34//1 33//1 36//1 35//1
f 40//1 39//1 38//1 37//1
f 25//5 33//5 34//5 26//5
f 30//2 38//2 39//2 31//2
f 28//2 36//2 33//2 25//2
f 26//4 34//4 35//4 27//4
f 31//5 39//5 40//5 32//5
f 29//6 37//6 38//6 30//6
