# Blender v2.79 (sub 0) OBJ File: 'Filler Furniture.blend'
# www.blender.org
mtllib Vase.mtl
o Jar_Cone
v 0.793000 -0.873355 7.525092
v 0.625385 -0.873355 7.497122
v 0.625385 -0.938459 7.574378
v 0.625385 0.039099 7.709127
v 0.767915 -0.938459 7.598162
v 0.724162 0.039099 7.725610
v 0.894999 -0.938459 7.666936
v 0.812234 0.039099 7.773273
v 0.992866 -0.938459 7.773249
v 0.880059 0.039099 7.846950
v 1.050912 -0.938459 7.905579
v 0.920285 0.039099 7.938658
v 1.062844 -0.938459 8.049585
v 0.928555 0.039099 8.038458
v 1.027372 -0.938459 8.189664
v 0.903972 0.039099 8.135535
v 0.948337 -0.938459 8.310635
v 0.849199 0.039099 8.219371
v 0.834306 -0.938459 8.399389
v 0.770173 0.039099 8.280880
v 0.697635 -0.938459 8.446308
v 0.675456 0.039099 8.313396
v 0.553135 -0.938459 8.446308
v 0.575314 0.039099 8.313396
v 0.416464 -0.938459 8.399389
v 0.480598 0.039099 8.280880
v 0.302433 -0.938459 8.310635
v 0.401571 0.039099 8.219371
v 0.223399 -0.938459 8.189664
v 0.346799 0.039099 8.135535
v 0.187926 -0.938459 8.049585
v 0.322215 0.039099 8.038458
v 0.199859 -0.938459 7.905578
v 0.330485 0.039099 7.938658
v 0.257904 -0.938459 7.773249
v 0.370712 0.039099 7.846950
v 0.355772 -0.938459 7.666936
v 0.438536 0.039099 7.773273
v 0.482856 -0.938459 7.598162
v 0.526609 0.039099 7.725610
v 0.942451 -0.873355 7.605970
v 1.057543 -0.873355 7.730994
v 1.125804 -0.873355 7.886613
v 1.139837 -0.873355 8.055965
v 1.098121 -0.873355 8.220697
v 1.005177 -0.873355 8.362959
v 0.871076 -0.873355 8.467334
v 0.710351 -0.873355 8.522511
v 0.540419 -0.873355 8.522511
v 0.379694 -0.873355 8.467334
v 0.245594 -0.873355 8.362959
v 0.152650 -0.873355 8.220697
v 0.110934 -0.873355 8.055965
v 0.124967 -0.873355 7.886612
v 0.193228 -0.873355 7.730993
v 0.308320 -0.873355 7.605970
v 0.457771 -0.873355 7.525092
v 0.521029 -0.001008 7.709356
v 0.427981 -0.001008 7.759710
v 0.625385 -0.001008 7.691941
v 0.356324 -0.001008 7.837550
v 0.313825 -0.001008 7.934438
v 0.305088 -0.001008 8.039877
v 0.331060 -0.001008 8.142439
v 0.388927 -0.001008 8.231011
v 0.472418 -0.001008 8.295995
v 0.572485 -0.001008 8.330348
v 0.678285 -0.001008 8.330348
v 0.778352 -0.001008 8.295995
v 0.861843 -0.001008 8.231011
v 0.919710 -0.001008 8.142439
v 0.945682 -0.001008 8.039877
v 0.936945 -0.001008 7.934439
v 0.894446 -0.001008 7.837550
v 0.822790 -0.001008 7.759711
v 0.729742 -0.001008 7.709356
v 0.711949 0.029262 7.761184
v 0.625385 0.029262 7.746739
v 0.789133 0.029262 7.802953
v 0.848572 0.029262 7.867521
v 0.883825 0.029262 7.947891
v 0.891072 0.029262 8.035352
v 0.869528 0.029262 8.120428
v 0.821527 0.029262 8.193897
v 0.752271 0.029262 8.247802
v 0.669266 0.029262 8.276298
v 0.581505 0.029262 8.276298
v 0.498499 0.029262 8.247802
v 0.429243 0.029262 8.193897
v 0.381242 0.029262 8.120428
v 0.359698 0.029262 8.035352
v 0.366946 0.029262 7.947890
v 0.402199 0.029262 7.867521
v 0.461638 0.029262 7.802953
v 0.538821 0.029262 7.761184
v 0.742868 -0.763631 7.671122
v 0.625385 -0.763631 7.651517
v 0.847619 -0.763631 7.727810
v 0.928288 -0.763631 7.815440
v 0.976133 -0.763631 7.924515
v 0.985969 -0.763631 8.043216
v 0.956730 -0.763631 8.158677
v 0.891584 -0.763631 8.258390
v 0.797592 -0.763631 8.331548
v 0.684939 -0.763631 8.370222
v 0.565832 -0.763631 8.370222
v 0.453178 -0.763631 8.331548
v 0.359186 -0.763631 8.258390
v 0.294040 -0.763631 8.158677
v 0.264801 -0.763631 8.043216
v 0.274637 -0.763631 7.924515
v 0.322482 -0.763631 7.815440
v 0.403151 -0.763631 7.727810
v 0.507903 -0.763631 7.671121
v 0.524107 -0.014849 7.718322
v 0.433804 -0.014849 7.767192
v 0.364261 -0.014849 7.842735
v 0.323015 -0.014849 7.936765
v 0.314536 -0.014849 8.039094
v 0.339742 -0.014849 8.138631
v 0.395902 -0.014849 8.224590
v 0.476930 -0.014849 8.287657
v 0.574046 -0.014849 8.320997
v 0.676725 -0.014849 8.320997
v 0.773840 -0.014849 8.287657
v 0.854868 -0.014849 8.224590
v 0.911028 -0.014849 8.138631
v 0.936234 -0.014849 8.039094
v 0.927755 -0.014849 7.936766
v 0.886509 -0.014849 7.842736
v 0.816967 -0.014849 7.767192
v 0.726664 -0.014849 7.718322
v 0.625385 -0.014849 7.701422
v 0.516389 -0.030710 7.695841
v 0.419205 -0.030710 7.748435
v 0.344363 -0.030710 7.829735
v 0.299974 -0.030710 7.930931
v 0.290848 -0.030710 8.041057
v 0.317975 -0.030710 8.148179
v 0.378415 -0.030710 8.240689
v 0.465618 -0.030710 8.308560
v 0.570134 -0.030710 8.344441
v 0.680637 -0.030710 8.344441
v 0.785153 -0.030710 8.308560
v 0.872355 -0.030710 8.240689
v 0.932795 -0.030710 8.148179
v 0.959922 -0.030710 8.041057
v 0.950796 -0.030710 7.930931
v 0.906408 -0.030710 7.829735
v 0.831566 -0.030710 7.748435
v 0.734381 -0.030710 7.695842
v 0.625385 -0.030710 7.677653
v 0.458117 -0.827382 7.526098
v 0.308974 -0.827382 7.606811
v 0.194119 -0.827382 7.731576
v 0.125999 -0.827382 7.886874
v 0.111995 -0.827382 8.055878
v 0.153625 -0.827382 8.220270
v 0.246377 -0.827382 8.362238
v 0.380201 -0.827382 8.466397
v 0.540594 -0.827382 8.521461
v 0.710176 -0.827382 8.521461
v 0.870569 -0.827382 8.466397
v 1.004393 -0.827382 8.362238
v 1.097146 -0.827382 8.220270
v 1.138776 -0.827382 8.055878
v 1.124772 -0.827382 7.886875
v 1.056651 -0.827382 7.731576
v 0.941797 -0.827382 7.606811
v 0.792654 -0.827382 7.526099
v 0.625385 -0.827382 7.498187
vn 0.6011 0.2053 -0.7723
vn 0.6115 -0.0931 -0.7857
vn 0.8335 -0.0931 -0.5445
vn 0.8193 0.2052 -0.5353
vn 0.1214 -0.9274 -0.3538
vn 0.2983 -0.3951 -0.8689
vn 0.5642 -0.3951 -0.7249
vn 0.2297 -0.9274 -0.2952
vn 0.0000 -0.0931 -0.9956
vn 0.0000 0.8708 -0.4916
vn 0.1596 0.8708 -0.4649
vn 0.3233 -0.0931 -0.9417
vn 0.3178 0.2052 -0.9257
vn 0.7690 -0.3951 -0.5024
vn 0.3131 -0.9274 -0.2046
vn 0.3020 0.8708 -0.3880
vn 0.9487 0.2052 -0.2402
vn 0.9652 -0.0931 -0.2444
vn 0.9922 -0.0931 0.0822
vn 0.9753 0.2052 0.0808
vn 0.8905 -0.3951 -0.2255
vn 0.3626 -0.9274 -0.0918
vn 0.4115 0.8708 -0.2689
vn 0.9118 -0.0931 0.3999
vn 0.8963 0.2052 0.3931
vn 0.9155 -0.3951 0.0758
vn 0.3728 -0.9274 0.0309
vn 0.4765 0.8708 -0.1207
vn 0.7325 -0.0931 0.6743
vn 0.7201 0.2052 0.6628
vn 0.8413 -0.3951 0.3690
vn 0.3425 -0.9274 0.1502
vn 0.4899 0.8708 0.0406
vn 0.4739 -0.0931 0.8756
vn 0.4658 0.2052 0.8607
vn 0.6759 -0.3951 0.6222
vn 0.2752 -0.9274 0.2533
vn 0.4502 0.8708 0.1975
vn 0.1639 -0.0931 0.9821
vn 0.1611 0.2052 0.9653
vn 0.4372 -0.3951 0.8079
vn 0.1780 -0.9274 0.3290
vn 0.3617 0.8708 0.3330
vn -0.1639 -0.0931 0.9821
vn -0.1611 0.2052 0.9653
vn 0.1512 -0.3951 0.9061
vn 0.0616 -0.9274 0.3689
vn 0.2340 0.8708 0.4324
vn -0.4739 -0.0931 0.8756
vn -0.4658 0.2052 0.8607
vn -0.1512 -0.3951 0.9061
vn -0.0616 -0.9274 0.3689
vn 0.0809 0.8708 0.4849
vn -0.7325 -0.0931 0.6743
vn -0.7201 0.2052 0.6628
vn -0.4372 -0.3951 0.8079
vn -0.1780 -0.9274 0.3290
vn -0.0809 0.8708 0.4849
vn -0.9118 -0.0931 0.3999
vn -0.8963 0.2052 0.3931
vn -0.6759 -0.3951 0.6222
vn -0.2752 -0.9274 0.2533
vn -0.2340 0.8708 0.4324
vn -0.9922 -0.0931 0.0822
vn -0.9753 0.2052 0.0808
vn -0.8413 -0.3951 0.3690
vn -0.3425 -0.9274 0.1502
vn -0.3617 0.8708 0.3330
vn -0.9652 -0.0931 -0.2444
vn -0.9487 0.2052 -0.2402
vn -0.9155 -0.3951 0.0758
vn -0.3728 -0.9274 0.0309
vn -0.4502 0.8708 0.1975
vn -0.8335 -0.0931 -0.5445
vn -0.8193 0.2053 -0.5353
vn -0.8905 -0.3951 -0.2255
vn -0.3626 -0.9274 -0.0918
vn -0.4899 0.8708 0.0406
vn -0.6115 -0.0931 -0.7857
vn -0.6011 0.2052 -0.7723
vn -0.7690 -0.3951 -0.5025
vn -0.3131 -0.9274 -0.2046
vn -0.4765 0.8708 -0.1207
vn -0.3233 -0.0931 -0.9417
vn -0.3178 0.2052 -0.9257
vn -0.5642 -0.3951 -0.7249
vn -0.2297 -0.9274 -0.2952
vn -0.4115 0.8708 -0.2689
vn 0.0000 0.2052 -0.9787
vn -0.2983 -0.3951 -0.8689
vn -0.1214 -0.9274 -0.3538
vn -0.3020 0.8708 -0.3880
vn -0.4926 0.5972 0.6329
vn -0.6714 0.5972 0.4387
vn 0.0000 -0.3951 -0.9186
vn 0.0000 -0.9274 -0.3740
vn -0.1596 0.8708 -0.4649
vn 0.1320 0.5972 -0.7911
vn -0.1320 0.5972 -0.7911
vn -0.1282 0.6270 -0.7684
vn 0.1282 0.6270 -0.7684
vn -0.7993 0.5972 -0.0662
vn -0.7345 0.5972 -0.3222
vn -0.3817 0.5972 -0.7054
vn 0.3817 0.5972 -0.7054
vn 0.5901 0.5972 -0.5432
vn 0.7993 0.5972 -0.0662
vn 0.7775 0.5972 0.1969
vn 0.4926 0.5972 0.6329
vn 0.2604 0.5972 0.7586
vn -0.2604 0.5972 0.7586
vn -0.7775 0.5972 0.1969
vn -0.5901 0.5972 -0.5432
vn 0.7345 0.5972 -0.3222
vn 0.6714 0.5972 0.4387
vn 0.0000 0.5972 0.8021
vn -0.2529 0.6270 0.7368
vn 0.0000 0.6270 0.7790
vn 0.2529 0.6270 0.7368
vn 0.4785 0.6270 0.6147
vn 0.6522 0.6270 0.4261
vn 0.7552 0.6270 0.1912
vn 0.7763 0.6270 -0.0643
vn 0.7134 0.6270 -0.3129
vn 0.5731 0.6270 -0.5276
vn 0.3707 0.6270 -0.6851
vn -0.3707 0.6270 -0.6851
vn -0.5731 0.6270 -0.5276
vn -0.7134 0.6270 -0.3129
vn -0.7763 0.6270 -0.0643
vn -0.7552 0.6270 0.1912
vn -0.6522 0.6270 0.4261
vn -0.4785 0.6270 0.6147
vn 0.0000 0.5488 -0.8360
vn 0.2714 0.5488 -0.7907
vn 0.6998 0.5488 -0.4572
vn 0.8104 0.5488 -0.2052
vn -0.2714 0.5488 -0.7907
vn -0.5134 0.5488 -0.6597
vn -0.6998 0.5488 -0.4572
vn -0.8104 0.5488 -0.2052
vn -0.8331 0.5488 0.0690
vn -0.7656 0.5488 0.3358
vn -0.6150 0.5488 0.5662
vn -0.3979 0.5488 0.7352
vn -0.1376 0.5488 0.8245
vn 0.1376 0.5488 0.8245
vn 0.3979 0.5488 0.7352
vn 0.6150 0.5488 0.5662
vn 0.7656 0.5488 0.3358
vn 0.8331 0.5488 0.0690
vn 0.5134 0.5488 -0.6597
vn 0.6097 0.1208 -0.7833
vn 0.8310 0.1208 -0.5429
vn 0.3223 0.1208 -0.9389
vn 0.9623 0.1208 -0.2437
vn 0.9893 0.1208 0.0820
vn 0.9091 0.1208 0.3987
vn 0.7303 0.1208 0.6723
vn 0.4725 0.1208 0.8730
vn 0.1634 0.1208 0.9791
vn -0.1634 0.1208 0.9791
vn -0.4725 0.1208 0.8730
vn -0.7303 0.1208 0.6723
vn -0.9091 0.1208 0.3987
vn -0.9893 0.1208 0.0820
vn -0.9623 0.1208 -0.2437
vn -0.8310 0.1208 -0.5429
vn -0.6097 0.1208 -0.7833
vn -0.3223 0.1208 -0.9389
vn 0.0000 0.1208 -0.9926
usemtl None
s 1
f 131//1 75//2 74//3 130//4
f 5//5 1//6 41//7 7//8
f 60//9 4//10 6//11 76//12
f 132//13 76//12 75//2 131//1
f 7//8 41//7 42//14 9//15
f 76//12 6//11 8//16 75//2
f 129//17 73//18 72//19 128//20
f 9//15 42//14 43//21 11//22
f 75//2 8//16 10//23 74//3
f 128//20 72//19 71//24 127//25
f 11//22 43//21 44//26 13//27
f 74//3 10//23 12//28 73//18
f 127//25 71//24 70//29 126//30
f 13//27 44//26 45//31 15//32
f 73//18 12//28 14//33 72//19
f 126//30 70//29 69//34 125//35
f 15//32 45//31 46//36 17//37
f 72//19 14//33 16//38 71//24
f 125//35 69//34 68//39 124//40
f 17//37 46//36 47//41 19//42
f 71//24 16//38 18//43 70//29
f 124//40 68//39 67//44 123//45
f 19//42 47//41 48//46 21//47
f 70//29 18//43 20//48 69//34
f 123//45 67//44 66//49 122//50
f 21//47 48//46 49//51 23//52
f 69//34 20//48 22//53 68//39
f 122//50 66//49 65//54 121//55
f 23//52 49//51 50//56 25//57
f 68//39 22//53 24//58 67//44
f 121//55 65//54 64//59 120//60
f 25//57 50//56 51//61 27//62
f 67//44 24//58 26//63 66//49
f 120//60 64//59 63//64 119//65
f 27//62 51//61 52//66 29//67
f 66//49 26//63 28//68 65//54
f 119//65 63//64 62//69 118//70
f 29//67 52//66 53//71 31//72
f 65//54 28//68 30//73 64//59
f 118//70 62//69 61//74 117//75
f 31//72 53//71 54//76 33//77
f 64//59 30//73 32//78 63//64
f 117//75 61//74 59//79 116//80
f 33//77 54//76 55//81 35//82
f 63//64 32//78 34//83 62//69
f 116//80 59//79 58//84 115//85
f 35//82 55//81 56//86 37//87
f 62//69 34//83 36//88 61//74
f 115//85 58//84 60//9 133//89
f 37//87 56//86 57//90 39//91
f 61//74 36//88 38//92 59//79
f 10//23 8//16 79//93 80//94
f 39//91 57//90 2//95 3//96
f 59//79 38//92 40//97 58//84
f 130//4 74//3 73//18 129//17
f 3//96 2//95 1//6 5//5
f 58//84 40//97 4//10 60//9
f 3//96 5//5 7//8 9//15 11//22 13//27 15//32 17//37 19//42 21//47 23//52 25//57 27//62 29//67 31//72 33//77 35//82 37//87 39//91
f 133//89 60//9 76//12 132//13
f 87//98 86//99 105//100 106//101
f 16//38 14//33 82//102 83//103
f 22//53 20//48 85//104 86//99
f 28//68 26//63 88//105 89//106
f 34//83 32//78 91//107 92//108
f 40//97 38//92 94//109 95//110
f 8//16 6//11 77//111 79//93
f 14//33 12//28 81//112 82//102
f 20//48 18//43 84//113 85//104
f 26//63 24//58 87//98 88//105
f 32//78 30//73 90//114 91//107
f 38//92 36//88 93//115 94//109
f 6//11 4//10 78//116 77//111
f 4//10 40//97 95//110 78//116
f 12//28 10//23 80//94 81//112
f 18//43 16//38 83//103 84//113
f 24//58 22//53 86//99 87//98
f 30//73 28//68 89//106 90//114
f 36//88 34//83 92//108 93//115
f 96//117 97//118 114//119 113//120 112//121 111//122 110//123 109//124 108//125 107//126 106//101 105//100 104//127 103//128 102//129 101//130 100//131 99//132 98//133
f 80//94 79//93 98//133 99//132
f 95//110 94//109 113//120 114//119
f 88//105 87//98 106//101 107//126
f 81//112 80//94 99//132 100//131
f 78//116 95//110 114//119 97//118
f 89//106 88//105 107//126 108//125
f 82//102 81//112 100//131 101//130
f 90//114 89//106 108//125 109//124
f 83//103 82//102 101//130 102//129
f 91//107 90//114 109//124 110//123
f 84//113 83//103 102//129 103//128
f 92//108 91//107 110//123 111//122
f 85//104 84//113 103//128 104//127
f 77//111 78//116 97//118 96//117
f 93//115 92//108 111//122 112//121
f 86//99 85//104 104//127 105//100
f 79//93 77//111 96//117 98//133
f 94//109 93//115 112//121 113//120
f 152//134 133//89 132//13 151//135
f 149//136 130//4 129//17 148//137
f 134//138 115//85 133//89 152//134
f 135//139 116//80 115//85 134//138
f 136//140 117//75 116//80 135//139
f 137//141 118//70 117//75 136//140
f 138//142 119//65 118//70 137//141
f 139//143 120//60 119//65 138//142
f 140//144 121//55 120//60 139//143
f 141//145 122//50 121//55 140//144
f 142//146 123//45 122//50 141//145
f 143//147 124//40 123//45 142//146
f 144//148 125//35 124//40 143//147
f 145//149 126//30 125//35 144//148
f 146//150 127//25 126//30 145//149
f 147//151 128//20 127//25 146//150
f 148//137 129//17 128//20 147//151
f 151//135 132//13 131//1 150//152
f 150//152 131//1 130//4 149//136
f 169//153 150//152 149//136 168//154
f 170//155 151//135 150//152 169//153
f 167//156 148//137 147//151 166//157
f 166//157 147//151 146//150 165//158
f 165//158 146//150 145//149 164//159
f 164//159 145//149 144//148 163//160
f 163//160 144//148 143//147 162//161
f 162//161 143//147 142//146 161//162
f 161//162 142//146 141//145 160//163
f 160//163 141//145 140//144 159//164
f 159//164 140//144 139//143 158//165
f 158//165 139//143 138//142 157//166
f 157//166 138//142 137//141 156//167
f 156//167 137//141 136//140 155//168
f 155//168 136//140 135//139 154//169
f 154//169 135//139 134//138 153//170
f 153//170 134//138 152//134 171//171
f 168//154 149//136 148//137 167//156
f 171//171 152//134 151//135 170//155
f 2//95 171//171 170//155 1//6
f 42//14 168//154 167//156 43//21
f 57//90 153//170 171//171 2//95
f 56//86 154//169 153//170 57//90
f 55//81 155//168 154//169 56//86
f 54//76 156//167 155//168 55//81
f 53//71 157//166 156//167 54//76
f 52//66 158//165 157//166 53//71
f 51//61 159//164 158//165 52//66
f 50//56 160//163 159//164 51//61
f 49//51 161//162 160//163 50//56
f 48//46 162//161 161//162 49//51
f 47//41 163//160 162//161 48//46
f 46//36 164//159 163//160 47//41
f 45//31 165//158 164//159 46//36
f 44//26 166//157 165//158 45//31
f 43//21 167//156 166//157 44//26
f 1//6 170//155 169//153 41//7
f 41//7 169//153 168//154 42//14
